<?xml version="1.0" encoding="utf-8"?>
<!-- Generator: Adobe Illustrator 26.1.0, SVG Export Plug-In . SVG Version: 6.00 Build 0)  -->
<svg version="1.1" id="Layer_1" xmlns="http://www.w3.org/2000/svg" xmlns:xlink="http://www.w3.org/1999/xlink" x="0px" y="0px"
	 viewBox="0 0 200 77" style="enable-background:new 0 0 200 77;" xml:space="preserve">
<style type="text/css">
	.st0{fill:#3D3935;}
	.st1{fill:#FFFFFF;}
	.st2{fill:#F91E26;}
</style>
<g id="CMYK_Logos_00000076603661592509803590000001224227275353456050_">
	<g>
		<g>
			<path class="st0" d="M74.5,15.4l6.9-0.2c1-0.1,2,0.1,3,0.5c0.8,0.3,1.5,0.8,2.1,1.3c0.5,0.5,0.9,1.2,1.2,1.9
				c0.3,0.8,0.4,1.5,0.4,2.3c0,0.9-0.2,1.9-0.5,2.7c-0.3,0.8-0.8,1.4-1.4,1.9c-0.6,0.5-1.3,0.9-2,1.2c-0.8,0.3-1.6,0.5-2.4,0.5
				l-2.9,0.1l0.2,6.6h-4.2L74.5,15.4z M81.3,24c0.7,0,1.4-0.2,1.9-0.8c0.5-0.5,0.7-1.2,0.7-1.9s-0.3-1.4-0.8-1.9
				c-0.5-0.5-1.2-0.8-1.9-0.7l-2.5,0.1l0.1,5.3L81.3,24z"/>
			<path class="st0" d="M89.9,15.4l4-0.1l0.2,6.9c0.5-0.5,1-0.9,1.7-1.2s1.4-0.5,2.2-0.5c1.4-0.1,2.7,0.4,3.7,1.3
				c1,1.1,1.5,2.6,1.5,4l0.2,8.2l-4,0.1l-0.2-7.6c0-0.7-0.2-1.3-0.6-1.8c-0.4-0.5-1-0.7-1.5-0.6c-0.4,0-0.8,0.1-1.2,0.2
				c-0.6,0.3-1.2,0.9-1.3,1.5c-0.1,0.4-0.2,0.8-0.2,1.2l0.2,7.1l-4.1,0.1L89.9,15.4z"/>
			<path class="st0" d="M104.9,27.6c0-0.9,0.2-1.9,0.5-2.8c0.3-0.9,0.8-1.6,1.4-2.2c0.6-0.7,1.4-1.2,2.2-1.5
				c1.9-0.8,3.9-0.8,5.8-0.1c0.9,0.3,1.6,0.9,2.2,1.5c0.6,0.6,1.2,1.4,1.5,2.2c0.7,1.8,0.8,3.7,0.1,5.5c-0.3,0.9-0.8,1.6-1.4,2.2
				c-0.6,0.6-1.4,1.2-2.2,1.5c-0.9,0.4-1.9,0.6-2.9,0.6c-1,0-2-0.2-2.9-0.5c-1.7-0.7-3.1-2-3.8-3.7C105.1,29.4,105,28.5,104.9,27.6
				 M112.2,31c0.5,0,0.9-0.1,1.4-0.3c0.4-0.2,0.7-0.5,1-0.9c0.2-0.3,0.5-0.8,0.6-1.2c0.2-0.5,0.2-0.9,0.2-1.3c0-0.5-0.1-0.9-0.2-1.3
				c-0.2-0.4-0.4-0.8-0.6-1.2c-0.3-0.3-0.6-0.6-1-0.8c-0.5-0.2-0.9-0.3-1.4-0.2c-0.5,0-0.9,0.1-1.4,0.3c-0.4,0.2-0.7,0.5-1,0.8
				c-0.2,0.3-0.5,0.7-0.6,1.2c-0.3,0.9-0.2,1.8,0.1,2.6c0.2,0.4,0.4,0.8,0.6,1.2c0.3,0.3,0.6,0.6,1,0.8
				C111.1,30.9,111.6,31,112.2,31"/>
			<path class="st0" d="M134,32.5c-0.2,0.1-0.4,0.2-0.7,0.5c-0.4,0.2-0.8,0.5-1.2,0.6c-0.5,0.2-1.1,0.5-1.7,0.6
				c-0.8,0.2-1.5,0.3-2.2,0.3c-1.1,0-2.1-0.2-3.1-0.5c-0.9-0.3-1.6-0.8-2.3-1.4c-0.6-0.6-1.2-1.4-1.5-2.2c-0.4-0.9-0.5-1.9-0.5-2.9
				c0-0.9,0.2-1.9,0.4-2.7c0.3-0.9,0.7-1.6,1.3-2.2c0.6-0.6,1.3-1.2,2.2-1.5c0.9-0.4,1.9-0.6,2.9-0.6c1,0,1.9,0.2,2.9,0.5
				c0.8,0.4,1.5,0.9,2.1,1.5c0.6,0.7,1.1,1.5,1.3,2.3c0.3,1,0.5,2,0.5,3.1v0.7l-9.4,0.2c0.1,0.8,0.4,1.4,1,1.9
				c0.7,0.5,1.6,0.9,2.6,0.8c0.9,0,1.8-0.2,2.6-0.5c0.5-0.2,1-0.5,1.5-0.9L134,32.5z M130.4,26c0-0.6-0.3-1.2-0.7-1.7
				c-0.2-0.2-0.5-0.5-0.9-0.6c-0.4-0.2-0.8-0.2-1.2-0.2c-0.5,0-0.9,0.1-1.2,0.2c-0.3,0.2-0.6,0.4-0.9,0.6c-0.2,0.2-0.4,0.5-0.5,0.9
				s-0.2,0.5-0.2,0.9H130.4z"/>
			<path class="st0" d="M136.7,20.9l3.9-0.1l0.2,1.5c0.5-0.5,1.1-1,1.7-1.3c0.7-0.3,1.5-0.5,2.2-0.5c1.3-0.1,2.7,0.4,3.6,1.3
				c1,1.1,1.5,2.6,1.4,4l0.2,8.2l-4.1,0.1l-0.2-7.7c0-0.6-0.2-1.2-0.6-1.8c-0.4-0.5-0.9-0.7-1.5-0.6c-0.4,0-0.9,0.1-1.2,0.2
				s-0.6,0.4-0.9,0.6c-0.2,0.3-0.4,0.6-0.5,0.9c-0.1,0.4-0.2,0.8-0.2,1.2l0.2,7.1l-4,0.1L136.7,20.9z"/>
			<path class="st0" d="M153.4,15.2h2.4c0.5,0,1,0.4,1,0.9l0,0v1.7c0,0.5-0.4,1-0.9,1l0,0l-2.4,0.1c-0.5,0-1-0.4-1-0.9l0,0v-1.7
				C152.4,15.7,152.8,15.3,153.4,15.2C153.3,15.3,153.4,15.3,153.4,15.2 M152.6,20.9l4.1-0.1l0.2,13.3l-4.1,0.1L152.6,20.9z"/>
			<polygon class="st0" points="163.5,27.5 158.5,20.9 163.4,20.8 165.8,24.3 168.2,20.8 172.6,20.7 168.1,27.1 173.3,34 
				168.4,34.1 165.7,30.3 163.1,34.1 158.7,34.2 			"/>
			<path class="st0" d="M91.5,58c-0.4,0.5-0.9,1.1-1.4,1.5c-0.5,0.5-1.2,0.9-1.9,1.3c-0.7,0.4-1.5,0.7-2.2,0.9
				c-2.2,0.5-4.4,0.5-6.4-0.3c-1.2-0.5-2.2-1.2-3.1-2c-0.9-0.9-1.5-1.9-2.1-3.1c-0.5-1.2-0.8-2.6-0.8-3.9c0-1.3,0.2-2.7,0.6-3.9
				c0.5-1.2,1.1-2.2,1.9-3.2c0.9-0.9,1.9-1.6,3-2.2c1.2-0.5,2.6-0.9,3.9-0.9c1.6-0.1,3.2,0.2,4.6,0.9c1.3,0.6,2.5,1.5,3.3,2.7
				l-2.9,2.9c-0.5-0.8-1.2-1.4-2-1.9c-0.9-0.5-1.8-0.7-2.8-0.7c-0.8,0-1.6,0.2-2.3,0.5c-0.6,0.3-1.2,0.8-1.7,1.3
				c-0.5,0.5-0.9,1.2-1.1,1.9c-0.2,0.8-0.4,1.5-0.3,2.3c0,0.8,0.2,1.5,0.5,2.3c0.2,0.7,0.6,1.3,1.1,1.9c0.5,0.5,1.1,0.9,1.8,1.2
				c0.7,0.3,1.5,0.5,2.2,0.4c0.6,0,1.2-0.1,1.8-0.2c0.9-0.2,1.7-0.8,2.3-1.4c0.3-0.3,0.6-0.6,0.9-0.9L91.5,58z"/>
			<path class="st0" d="M93.6,42.8l4-0.1l0.1,6.9c0.5-0.5,1.1-0.9,1.7-1.2c0.7-0.3,1.4-0.5,2.2-0.5c1.3-0.1,2.6,0.4,3.6,1.3
				c1,1.1,1.5,2.6,1.5,4l0.2,8.2l-4,0.1l-0.2-7.6c0-0.7-0.2-1.3-0.6-1.8c-0.4-0.5-1-0.7-1.6-0.6c-0.4,0-0.8,0.1-1.2,0.2
				c-0.3,0.2-0.6,0.4-0.9,0.6c-0.2,0.3-0.4,0.6-0.5,0.9c-0.1,0.4-0.2,0.8-0.2,1.1l0.2,7.1l-4.1,0.1L93.6,42.8z"/>
			<path class="st0" d="M110.3,42.7l2.7-0.1c0.5,0,0.9,0.4,0.9,0.9v1.9c0,0.5-0.3,0.9-0.8,0.9l-2.7,0.1c-0.5,0-0.9-0.4-0.9-0.9l0,0
				v-1.9C109.5,43.1,109.9,42.7,110.3,42.7C110.4,42.7,110.4,42.7,110.3,42.7 M109.8,48.3l4.1-0.1l0.2,13.3l-4.1,0.1L109.8,48.3z"/>
			
				<rect x="116.9" y="42.6" transform="matrix(0.9998 -1.745324e-02 1.745324e-02 0.9998 -0.8908 2.0833)" class="st0" width="4.1" height="18.9"/>
			<path class="st0" d="M133,60.2c-0.4,0.5-0.9,0.9-1.5,1.2c-0.7,0.4-1.5,0.5-2.2,0.5c-1.5,0.1-3.1-0.6-4.2-1.8
				c-0.5-0.6-1-1.4-1.3-2.2c-0.3-0.9-0.5-1.9-0.5-2.9c-0.1-1.1,0.2-2.2,0.6-3.2c0.4-0.9,0.9-1.6,1.6-2.2c0.6-0.6,1.4-1.1,2.2-1.4
				c0.8-0.3,1.6-0.5,2.4-0.5c0.5,0,1,0,1.5,0.1c0.4,0.1,0.8,0.2,1.1,0.3l-0.1-5.8l4-0.1l0.3,18.9l-3.8,0.1L133,60.2z M132.7,51.8
				c-0.3-0.2-0.6-0.3-0.9-0.3c-0.4-0.1-0.9-0.1-1.2-0.1c-0.9,0-1.9,0.4-2.4,1.1c-0.6,0.8-0.9,1.7-0.9,2.7c0,0.9,0.3,1.6,0.8,2.3
				c0.5,0.6,1.3,0.9,2.2,0.9c0.4,0,0.8-0.1,1.2-0.2c0.3-0.2,0.5-0.4,0.8-0.6c0.2-0.3,0.4-0.6,0.5-0.9c0.1-0.4,0.2-0.7,0.2-1.1
				L132.7,51.8z"/>
			<path class="st0" d="M139.8,48.4l3.9-0.1l0.2,1.7c0.4-0.5,0.9-0.9,1.4-1.3c0.7-0.5,1.5-0.7,2.3-0.7c0.3,0,0.6,0,0.9,0
				c0.2,0,0.5,0.1,0.8,0.2l-0.6,3.6c-0.5-0.2-1-0.2-1.5-0.2c-1.7-0.1-3.1,1.2-3.2,2.9c0,0.2,0,0.3,0,0.5l0.1,6.6l-4.1,0.1
				L139.8,48.4z"/>
			<path class="st0" d="M163.2,60c-0.2,0.1-0.4,0.2-0.7,0.5c-0.4,0.2-0.8,0.5-1.2,0.6c-0.5,0.2-1.1,0.5-1.7,0.6
				c-0.8,0.2-1.5,0.3-2.2,0.3c-1.1,0-2.1-0.2-3.1-0.5c-0.9-0.3-1.6-0.8-2.3-1.4c-0.6-0.6-1.2-1.4-1.5-2.2c-0.4-0.9-0.5-1.9-0.5-2.9
				s0.2-1.9,0.5-2.7c0.3-0.9,0.8-1.6,1.3-2.2c0.6-0.6,1.3-1.2,2.2-1.5c0.9-0.4,1.9-0.6,2.9-0.6s1.9,0.2,2.9,0.5
				c0.8,0.4,1.5,0.9,2.1,1.5c0.6,0.7,1,1.5,1.3,2.4c0.3,1,0.5,2,0.5,3.1v0.7l-9.4,0.2c0.1,0.7,0.4,1.4,0.9,1.9
				c0.7,0.5,1.6,0.9,2.6,0.8c0.9,0,1.8-0.2,2.6-0.5c0.5-0.2,1-0.5,1.5-0.9L163.2,60z M159.5,53.5c0-0.3-0.1-0.6-0.2-0.9
				c-0.2-0.3-0.3-0.5-0.5-0.8c-0.2-0.2-0.5-0.5-0.9-0.6c-0.4-0.2-0.8-0.2-1.2-0.2s-0.9,0.1-1.2,0.2c-0.3,0.2-0.6,0.4-0.9,0.6
				c-0.2,0.2-0.4,0.5-0.5,0.9c-0.1,0.3-0.2,0.5-0.2,0.9L159.5,53.5z"/>
			<path class="st0" d="M165.8,48.4l3.9-0.1l0.2,1.5c0.5-0.5,1-1,1.7-1.3c0.7-0.3,1.5-0.5,2.2-0.5c1.3-0.1,2.7,0.4,3.6,1.3
				c1,1.1,1.5,2.6,1.4,4l0.2,8.2l-4.1,0.1l-0.2-7.7c0-0.6-0.2-1.2-0.6-1.8c-0.4-0.5-0.9-0.7-1.5-0.6c-0.4,0-0.9,0.1-1.2,0.2
				c-0.3,0.2-0.6,0.4-0.9,0.6c-0.2,0.3-0.4,0.6-0.5,0.9c-0.1,0.4-0.2,0.8-0.2,1.1l0.2,7.1l-4,0.1L165.8,48.4z"/>
			<path class="st0" d="M181,42.7h2.2c0.5,0,1,0.4,1,0.9c0,0.1,0,0.2-0.1,0.3l-1.4,4.6c-0.2,0.4-0.5,0.7-0.9,0.7h-1.2
				c-0.5,0-1-0.4-1-0.9v-0.1l0.4-4.6C180.1,43.1,180.5,42.7,181,42.7"/>
			<path class="st0" d="M186.1,57.5c0.5,0.5,1.1,0.8,1.7,0.9c0.7,0.2,1.4,0.4,2.1,0.4c0.5,0,1-0.1,1.5-0.2c0.4-0.2,0.6-0.5,0.6-0.9
				c0-0.2,0-0.3-0.1-0.4c-0.2-0.2-0.3-0.3-0.5-0.4c-0.3-0.2-0.6-0.3-1-0.4c-0.4-0.2-0.9-0.2-1.5-0.5c-0.5-0.2-1.1-0.3-1.5-0.5
				c-0.5-0.2-0.9-0.5-1.3-0.8c-0.4-0.3-0.7-0.7-0.9-1.2c-0.5-1-0.5-2.2,0-3.2c0.3-0.5,0.7-1,1.2-1.3c0.5-0.4,1.2-0.7,1.9-0.9
				c0.7-0.2,1.5-0.3,2.2-0.3c1,0,2,0.1,3,0.3c0.9,0.2,1.6,0.6,2.4,1.1l-1.7,2.7c-0.5-0.3-1-0.5-1.5-0.8c-0.6-0.2-1.2-0.3-1.9-0.3
				c-0.5,0-0.9,0.1-1.4,0.3c-0.2,0.2-0.5,0.5-0.4,0.7c0,0.5,0.3,0.8,0.9,0.9c0.6,0.2,1.4,0.5,2.4,0.7c1.1,0.2,2.1,0.8,2.9,1.5
				c0.6,0.7,1,1.6,0.9,2.6c0,0.7-0.2,1.3-0.5,1.9c-0.3,0.5-0.8,1-1.3,1.3c-0.6,0.4-1.2,0.6-1.9,0.8c-0.7,0.2-1.5,0.3-2.2,0.3
				c-1.2,0-2.2-0.2-3.4-0.5c-1-0.2-1.9-0.7-2.6-1.4L186.1,57.5z"/>
			<path class="st0" d="M198.1,46.1c-0.3,0-0.6-0.1-0.9-0.2c-0.2-0.2-0.5-0.4-0.6-0.6c-0.2-0.3-0.2-0.6-0.2-0.9
				c0-0.3,0.1-0.6,0.2-0.9c0.2-0.2,0.4-0.5,0.6-0.6c0.3-0.2,0.6-0.2,0.9-0.2s0.6,0.1,0.9,0.2c0.2,0.2,0.5,0.4,0.6,0.6
				c0.2,0.3,0.2,0.6,0.2,0.9c0,0.3-0.1,0.6-0.2,0.9c-0.2,0.2-0.4,0.5-0.6,0.6C198.7,46,198.4,46.1,198.1,46.1z M198.1,45.7
				c0.2,0,0.5-0.1,0.7-0.2c0.2-0.1,0.3-0.3,0.5-0.5c0.1-0.2,0.2-0.5,0.2-0.7c0-0.4-0.1-0.7-0.4-0.9c-0.2-0.2-0.6-0.4-0.9-0.4
				c-0.2,0-0.5,0.1-0.7,0.2c-0.2,0.1-0.4,0.2-0.5,0.5c-0.1,0.2-0.2,0.5-0.2,0.7s0.1,0.5,0.2,0.7c0.1,0.2,0.2,0.4,0.5,0.5
				C197.6,45.7,197.8,45.7,198.1,45.7L198.1,45.7z M197.4,45.2v-1.7h0.7c0.2,0,0.3,0.1,0.4,0.2c0.1,0.1,0.2,0.2,0.2,0.4
				c0,0.2-0.1,0.5-0.3,0.5l0.4,0.6h-0.4l-0.4-0.6h-0.2v0.6H197.4z M197.8,44.3h0.2c0.1,0,0.2,0,0.2-0.1s0.1-0.2,0.1-0.2
				s0-0.2-0.1-0.2s-0.1-0.1-0.2-0.1h-0.3V44.3z"/>
			<path class="st1" d="M38.3,16c-1.2-0.5-2.6,0-3.1,1.2l0,0c-0.4,0.9-1.7,4.5-3.6,9.8c-1,2.9-2.1,5.7-2.3,6.3
				c-0.5,1.2,0.1,2.6,1.2,3l0,0c0.3,0.2,0.6,0.2,0.9,0.2c0.9,0,1.8-0.5,2.2-1.5c0.2-0.6,1.1-2.9,2.4-6.5c1.3-3.6,3.1-8.7,3.5-9.4
				C40,17.9,39.5,16.5,38.3,16L38.3,16z"/>
			<path class="st1" d="M37.2,36.3c-1,0.9-1.1,2.3-0.3,3.3c0.9,1,2.3,1.1,3.3,0.3l0,0c1.4-1.2,9.4-9.9,10.2-10.9
				c0.9-0.9,0.8-2.5-0.2-3.3c-0.9-0.9-2.5-0.8-3.3,0.2C43.6,29.7,38.1,35.6,37.2,36.3z"/>
			<path class="st1" d="M51.1,48.8c-3.3-0.2-6.7,0.5-9.7,2.2c-1.2,0.6-1.5,2-0.9,3.2c0.6,1.2,2,1.5,3.2,0.9l0,0
				c2.1-1.2,4.5-1.7,6.9-1.6c1.3,0.2,2.5-0.8,2.6-2C53.3,50.1,52.4,49,51.1,48.8L51.1,48.8L51.1,48.8z"/>
			<path class="st1" d="M14.5,24.6c-0.5-1.2-1.9-1.8-3-1.3s-1.8,1.9-1.3,3l3.2,7.8c0.5,1.2,1.9,1.8,3,1.3c1.2-0.5,1.8-1.9,1.3-3
				L14.5,24.6z"/>
			<path class="st1" d="M13,41.5c-2,5.3,2.4,13.9,5.2,18.6c0.7,1.1,1.9,1.8,3.2,1.9c0.4,0,0.7-0.1,1.1-0.2
				c5.2-1.6,14.2-5.1,16.2-10.4c0.9-2.2,0.7-4.7-0.3-6.9c-1-2.2-2.9-3.7-5.2-4.4c-1.6-0.5-3.3-0.5-4.9,0c-0.9-1.4-2.1-2.6-3.6-3.2
				c-2.1-1-4.6-1.1-6.7-0.2C15.7,37.5,13.9,39.2,13,41.5z M19.7,41c0.5-0.2,0.9-0.2,1.3-0.2c0.5,0,1,0.2,1.5,0.3
				c1.2,0.6,1.5,1.3,2.1,2.6l0.2,0.5c0.5,1.2,1.9,1.7,3.1,1.2l0.6-0.3c1.2-0.5,1.8-0.9,3.1-0.5c1,0.3,1.8,1,2.2,1.9
				c0.5,0.9,0.5,2,0.2,3c-0.9,2.2-5.7,5.1-12.3,7.2c-3.5-6-5.2-11.4-4.3-13.6C17.9,42.2,18.7,41.4,19.7,41z"/>
			<path class="st1" d="M23.7,34.3L23.7,34.3c1.3,0,2.3-1,2.3-2.3c0.1-4.1-0.3-14-0.3-14.5c-0.1-1.3-1.2-2.2-2.4-2.2
				c-1.3,0.1-2.2,1.2-2.2,2.4l0,0c0,0.1,0.4,10.3,0.3,14.2C21.4,33.2,22.4,34.3,23.7,34.3L23.7,34.3z"/>
			<path class="st2" d="M48.4,8.5C33.6,7.9,16.9,8.2,7.9,9.3c-3.6,0.5-6.7,2.9-7,8.4C0.3,31.9,0.7,44,2.8,56.5
				C4.1,63.8,7.2,68.9,19,68.9c10.5,0,21,0.3,31.4-1.7c6.5-1.2,9-6.2,9.4-13.2c0.6-10.7,0-22.5-1.1-34.1C58,13.2,54.7,8.9,48.4,8.5z
				 M21.1,17.7c-0.1-1.3,0.9-2.4,2.2-2.4c1.3-0.1,2.4,0.9,2.4,2.2l0,0c0,0.4,0.4,10.4,0.3,14.5c0,1.3-1,2.3-2.3,2.3l0,0l0,0
				c-1.3,0-2.3-1-2.3-2.3c0,0,0,0,0-0.1C21.4,28,21.1,17.8,21.1,17.7z M24.7,36.8c1.5,0.7,2.8,1.9,3.6,3.2c1.6-0.5,3.3-0.5,4.9,0
				c2.2,0.7,4.2,2.3,5.2,4.4c1.1,2.2,1.2,4.6,0.3,6.9c-2,5.3-11.1,8.7-16.2,10.4c-0.3,0.1-0.7,0.2-1.1,0.2c-1.3,0-2.5-0.7-3.2-1.8
				C15.4,55.4,11,46.8,13,41.5c0.9-2.2,2.7-4.1,4.9-4.9S22.5,35.8,24.7,36.8L24.7,36.8z M39.5,19.1c-0.3,0.8-2.2,5.8-3.5,9.4
				s-2.1,5.9-2.4,6.5c-0.4,0.9-1.2,1.5-2.2,1.5c-0.3,0-0.6-0.1-0.9-0.2c-1.2-0.5-1.8-1.9-1.3-3l0,0c0.2-0.5,1.3-3.5,2.3-6.3
				c1.9-5.3,3.2-8.9,3.6-9.8c0.5-1.2,1.9-1.7,3.1-1.2C39.3,16.5,40,17.8,39.5,19.1L39.5,19.1L39.5,19.1z M47,25.9
				c0.9-0.9,2.3-1,3.3-0.2c0.9,0.9,1,2.3,0.2,3.3c-0.9,0.9-8.8,9.7-10.2,10.8c-1,0.9-2.5,0.7-3.3-0.3s-0.7-2.5,0.3-3.3
				C38.1,35.6,43.6,29.7,47,25.9z M16.4,35.4c-1.2,0.5-2.6-0.1-3-1.2l0,0l-3.2-7.8c-0.5-1.2,0.1-2.6,1.3-3c1.2-0.5,2.6,0.1,3,1.3
				l3.1,7.7C18.2,33.5,17.7,34.9,16.4,35.4L16.4,35.4z M53.2,51.5c-0.2,1.2-1.3,2.2-2.6,2.1c0,0,0,0-0.1,0c-2.4-0.1-4.8,0.5-6.9,1.6
				c-1.2,0.6-2.6,0.2-3.2-0.9c-0.6-1.2-0.2-2.6,0.9-3.2c2.9-1.6,6.3-2.4,9.7-2.2C52.4,49,53.3,50.1,53.2,51.5
				C53.2,51.4,53.2,51.5,53.2,51.5z"/>
			<path class="st2" d="M21.8,56.8c6.6-2.2,11.4-5,12.3-7.2c0.4-1,0.3-2.1-0.2-3c-0.5-0.9-1.2-1.6-2.2-1.9c-1.2-0.4-1.9-0.1-3.1,0.5
				L28,45.4c-1.2,0.5-2.6-0.1-3.1-1.2l-0.2-0.5c-0.5-1.2-0.9-1.9-2.1-2.6c-0.5-0.2-1-0.3-1.5-0.3c-0.5,0-0.9,0.1-1.4,0.2
				c-1,0.4-1.8,1.2-2.2,2.2C16.7,45.4,18.4,50.8,21.8,56.8z"/>
		</g>
	</g>
</g>
</svg>
